Source: NTSC DVDR-NiNJA - Thanks
 
http://www.walmart.com/msharbor/ip/22036707?adid=1500000000000012981640&veh=mweb

Once upon a time... In the west, there was a secluded, pigtailed cowgirl who worked day and night for her wicked stepmother and evil stepsisters in their dusty frontier town. But this is not your typical "Cinderella" story.

General
Complete name                            : Cinderella Once Upon A Time In The West 2013 DVDRip x264 AC3-OFFLiNE.mkv
Format                                   : Matroska
Format version                           : Version 4 / Version 2
File size                                : 1.43 GiB
Duration                                 : 1h 21mn
Overall bit rate mode                    : Variable
Overall bit rate                         : 2 518 Kbps
Encoded date                             : UTC 2013-03-11 00:58:07
Writing application                      : mkvmerge v6.1.0 ('Old Devil') built on Mar  2 2013 14:32:37
Writing library                          : libebml v1.3.0 + libmatroska v1.4.0

Video
ID                                       : 1
Format                                   : AVC
Format/Info                              : Advanced Video Codec
Format profile                           : High@L4.1
Format settings, CABAC                   : Yes
Format settings, ReFrames                : 3 frames
Codec ID                                 : V_MPEG4/ISO/AVC
Duration                                 : 1h 21mn
Bit rate mode                            : Variable
Bit rate                                 : 2 068 Kbps
Maximum bit rate                         : 40.0 Mbps
Width                                    : 720 pixels
Height                                   : 400 pixels
Display aspect ratio                     : 16:9
Frame rate mode                          : Constant
Frame rate                               : 23.976 fps
Color space                              : YUV
Chroma subsampling                       : 4:2:0
Bit depth                                : 8 bits
Scan type                                : Progressive
Bits/(Pixel*Frame)                       : 0.299
Stream size                              : 1.15 GiB (80%)
Writing library                          : x264 core 130 r2273 b3065e6

Audio
ID                                       : 2
Format                                   : AC-3
Format/Info                              : Audio Coding 3
Mode extension                           : CM (complete main)
Format settings, Endianness              : Big
Codec ID                                 : A_AC3
Duration                                 : 1h 21mn
Bit rate mode                            : Constant
Bit rate                                 : 448 Kbps
Channel(s)                               : 6 channels
Channel positions                        : Front: L C R, Side: L R, LFE
Sampling rate                            : 48.0 KHz
Bit depth                                : 16 bits
Compression mode                         : Lossy
Stream size                              : 261 MiB (18%)
Language                                 : English
Default                                  : Yes
Forced                                   : No

 
http://www.shotpix.com/images/85218020631857713392.png 
http://www.shotpix.com/images/71988335163696743641.png 
http://www.shotpix.com/images/81603270068493436766.png 
http://www.shotpix.com/images/85718819613676402553.png